<svg width="64" height="57" fill="none" xmlns="http://www.w3.org/2000/svg"><path d="M20 8.213c-1.06 0-2.078.371-2.828 1.031-.75.66-1.172 1.556-1.172 2.49 0 .933.421 1.828 1.172 2.488.75.66 1.767 1.031 2.828 1.031 1.06 0 2.078-.37 2.828-1.03S24 12.666 24 11.732c0-.933-.421-1.829-1.172-2.489-.75-.66-1.767-1.03-2.828-1.03Zm-8 3.52c0-1.867.843-3.657 2.343-4.978 1.5-1.32 3.535-2.062 5.657-2.062s4.157.742 5.657 2.062C27.157 8.075 28 9.866 28 11.733c0 1.867-.843 3.658-2.343 4.978-1.5 1.32-3.535 2.062-5.657 2.062s-4.157-.741-5.657-2.062c-1.5-1.32-2.343-3.11-2.343-4.978Zm-1.952 9.387c-2.608 0-4.715 1.856-4.715 4.149v.845c0 .485 0 3.304 1.867 6.042 1.461 2.136 3.939 4.053 7.933 4.912.548-1.28 1.539-2.375 2.832-3.133-4.274-.401-6.296-2.072-7.333-3.59-1.29-1.892-1.299-3.905-1.299-4.238v-.838c0-.347.32-.629.715-.629h11.365a8.65 8.65 0 0 1 1.347-3.52H10.048Zm31.192 0a8.59 8.59 0 0 1 1.344 3.52h11.368c.395 0 .715.282.715.629v.838c0 .333-.008 2.346-1.299 4.235-1.037 1.521-3.059 3.192-7.333 3.593 1.28.751 2.282 1.845 2.832 3.133 3.994-.859 6.472-2.776 7.93-4.912 1.87-2.738 1.87-5.554 1.87-6.045v-.844c0-2.288-2.11-4.147-4.715-4.147H41.24ZM40 11.733c0-.933.421-1.829 1.172-2.489.75-.66 1.767-1.03 2.828-1.03 1.06 0 2.078.37 2.828 1.03S48 10.8 48 11.734c0 .933-.421 1.828-1.172 2.488-.75.66-1.767 1.031-2.828 1.031-1.06 0-2.078-.37-2.828-1.03S40 12.666 40 11.732Zm4-7.04c-2.122 0-4.157.742-5.657 2.062C36.843 8.075 36 9.866 36 11.733c0 1.867.843 3.658 2.343 4.978 1.5 1.32 3.535 2.062 5.657 2.062s4.157-.741 5.657-2.062c1.5-1.32 2.343-3.11 2.343-4.978 0-1.867-.843-3.657-2.343-4.978-1.5-1.32-3.535-2.062-5.657-2.062Zm-12 17.6c-.525 0-1.045.091-1.53.268a4.075 4.075 0 0 0-1.298.763 3.526 3.526 0 0 0-.867 1.142A3.158 3.158 0 0 0 28 25.813c0 .463.104.92.305 1.347.2.427.495.816.867 1.142.371.327.812.587 1.297.763a4.478 4.478 0 0 0 1.531.268c1.06 0 2.078-.37 2.828-1.03S36 26.746 36 25.812c0-.933-.421-1.828-1.172-2.489-.75-.66-1.767-1.03-2.828-1.03Zm-8 3.52c0-1.867.843-3.657 2.343-4.978 1.5-1.32 3.535-2.062 5.657-2.062s4.157.742 5.657 2.062c1.5 1.32 2.343 3.111 2.343 4.978 0 1.867-.843 3.658-2.343 4.978-1.5 1.32-3.535 2.062-5.657 2.062s-4.157-.741-5.657-2.062c-1.5-1.32-2.343-3.11-2.343-4.978ZM17.333 39.35c0-2.295 2.11-4.149 4.715-4.149h19.904c2.605 0 4.715 1.856 4.715 4.149v.845c0 .485 0 3.304-1.867 6.042-1.981 2.896-5.832 5.39-12.8 5.39-6.968 0-10.821-2.494-12.8-5.39-1.867-2.738-1.867-5.554-1.867-6.045v-.842Zm4.715-.629a.772.772 0 0 0-.504.186.598.598 0 0 0-.21.443v.838c0 .333.007 2.346 1.298 4.235 1.19 1.744 3.672 3.685 9.368 3.685s8.179-1.941 9.368-3.685c1.29-1.889 1.299-3.902 1.299-4.235v-.838a.598.598 0 0 0-.211-.443.772.772 0 0 0-.504-.186H22.048Z" fill="#F70776"/></svg>