<svg width="16" height="16" fill="none" xmlns="http://www.w3.org/2000/svg"><path d="m8.033 12.958-.078.084-.086-.084C4.163 9.367 1.714 6.992 1.714 4.583c0-1.666 1.17-2.916 2.73-2.916 1.202 0 2.372.833 2.786 1.966h1.45c.414-1.133 1.585-1.966 2.786-1.966 1.56 0 2.73 1.25 2.73 2.916 0 2.409-2.449 4.784-6.163 8.375ZM11.466 0c-1.357 0-2.66.675-3.51 1.733C7.104.675 5.801 0 4.443 0 2.041 0 .154 2.008.154 4.583c0 3.142 2.652 5.717 6.67 9.609l1.131 1.1 1.132-1.1c4.018-3.892 6.67-6.467 6.67-9.609C15.757 2.008 13.87 0 11.467 0Z" fill="#171B33"/></svg>