<svg width="42" height="42" fill="none" xmlns="http://www.w3.org/2000/svg"><g clip-path="url('#clip0_29_251')"><g clip-path="url('#clip1_29_251')"><path d="M32.25 24.5v5.25h5.25v3.5h-5.25v5.25h-3.5v-5.25H23.5v-3.5h5.25V24.5h3.5Zm2.175-16.175a10.5 10.5 0 0 1 .415 14.411l-2.485-2.482c2.328-2.667 2.205-6.849-.408-9.457a7 7 0 0 0-9.607-.267l-2.337 2.096-2.337-2.095a7 7 0 0 0-9.951 9.81l14.756 14.78L20 37.599 5.16 22.738A10.5 10.5 0 0 1 20 7.926a10.5 10.5 0 0 1 14.425.399Z" fill="#171B33"/></g></g><defs><clipPath id="clip0_29_251"><path fill="#fff" d="M0 0h42v42H0z"/></clipPath><clipPath id="clip1_29_251"><path fill="#fff" transform="translate(1)" d="M0 0h42v42H0z"/></clipPath></defs></svg>