<svg width="42" height="42" fill="none" xmlns="http://www.w3.org/2000/svg"><path d="M35.83 16.724h-.983a8.408 8.408 0 0 0-.922-1.958l.854-.856a1.172 1.172 0 0 0-.48-1.952 1.165 1.165 0 0 0-.786.037 2.917 2.917 0 0 0-.292-3.792 2.918 2.918 0 0 0-2.066-.858h-2.923c-.4 0-.791.039-1.177.095a1.176 1.176 0 0 0-.692-1.167 1.166 1.166 0 0 0-.468-.1c-.414 0-.812.22-1.026.608l-.5.912a9.509 9.509 0 0 0-1.982-.326V6.172A1.174 1.174 0 0 0 21.217 5a1.168 1.168 0 0 0-1.168 1.172v1.336a9.096 9.096 0 0 0-1.275.326l-1.29-1.768a1.172 1.172 0 0 0-.764-.467 1.167 1.167 0 0 0-1.335.98c-.048.308.029.621.212.873l1.065 1.458c-.034.025-.064.053-.097.079h-.043c-.798 0-1.572.097-2.319.266v-.152c0-.777-.308-1.522-.856-2.072a2.918 2.918 0 0 0-4.133 0 2.935 2.935 0 0 0-.856 2.072v1.29l-.343-.36a1.167 1.167 0 0 0-1.98.833c-.003.308.114.604.327.825l1.718 1.571A10.512 10.512 0 0 0 6 19.54v1.608a6.154 6.154 0 0 0 2.64 5.054 8.396 8.396 0 0 0 1.638 1.86l10.078 8.434A8.731 8.731 0 0 0 26.478 39a8.727 8.727 0 0 0 6.2-2.575h.001a8.776 8.776 0 0 0 2.567-6.218V19.29c0-.076-.009-.148-.011-.222h.596A1.168 1.168 0 0 0 37 17.897a1.174 1.174 0 0 0-1.17-1.173Zm-4.805 18.042a6.401 6.401 0 0 1-4.547 1.89 6.385 6.385 0 0 1-4.546-1.89l-.037-.037-8.958-7.498c3.019-.393 5.358-2.95 5.358-6.085v-3.914a8.994 8.994 0 0 0 1.929.533c.196.768.552 1.48 1.063 2.065a4.559 4.559 0 0 0 3.188 1.577l.249.007a4.685 4.685 0 0 0 4.677-4.69v-1.758c.001-.373.118-.718.316-1.002.361.197.699.427 1.012.692.133.113.28.21.404.333.43.433.772.944 1.059 1.488.132.252.249.51.346.783.18.506.289 1.041.328 1.6.01.146.044.283.044.43v10.917a6.446 6.446 0 0 1-1.885 4.56Zm-8.56-25.035a8.243 8.243 0 0 0-1.618 2.303c-.182.379-.334.77-.455 1.173a8.266 8.266 0 0 0-.333 2.131c-.68-.165-1.281-.41-1.764-.72-.555-.355-.945-.783-1.169-1.226-.032-.062-.071-.123-.096-.185a1.651 1.651 0 0 1-.124-.586c0-.285.076-.564.219-.81.663-1.233 2.041-1.76 3.34-1.997.001 0 1.929-.09 2-.083Zm9.274.545a.587.587 0 0 1-.584.586c-1.645 0-3.153 1.045-3.758 2.571-.422 1.065-.333 2.176-.334 3.291a2.354 2.354 0 0 1-.687 1.657 2.34 2.34 0 0 1-1.652.688l-.127-.004c-.609-.032-1.142-.316-1.552-.78a2.667 2.667 0 0 1-.304-.438c-.974-1.722-.264-4.402.88-5.864 1.933-2.47 4.745-2.293 7.534-2.293.321 0 .583.263.584.586ZM8.34 19.54c0-3.578 2.445-6.856 5.864-7.868.172-.05.345-.095.52-.133a3.9 3.9 0 0 0-.155 1.082c0 .868.293 1.687.804 2.41.171.242.367.471.585.69v5.427a3.83 3.83 0 0 1-1.117 2.7 3.808 3.808 0 0 1-2.692 1.12 3.764 3.764 0 0 1-1.807-.48 3.804 3.804 0 0 1-1.887-2.452 3.768 3.768 0 0 1-.116-.888V19.54Zm2.357-9.147v-1.29a.587.587 0 0 1 .585-.586.584.584 0 0 1 .584.586v.986c-.403.198-.794.42-1.169.668v-.364Z" fill="#334155"/></svg>