<svg width="42" height="42" fill="none" xmlns="http://www.w3.org/2000/svg"><path fill-rule="evenodd" clip-rule="evenodd" d="M21 7.593c3.626-2.95 7.934-2.94 11.364-.941 3.667 2.137 6.246 6.475 6.133 11.536-.139 6.16-4.816 11.61-12.816 16.492l-1.262.754c-.351.208-.742.43-1.123.623-.709.36-1.488.693-2.296.693-.808 0-1.587-.333-2.298-.693a17.47 17.47 0 0 1-.758-.411l-1.002-.592c-8.38-4.977-13.297-10.55-13.439-16.866C3.39 13.127 5.97 8.79 9.636 6.652c3.43-1.997 7.738-2.011 11.364.941Zm-9.602 2.085c-2.527 1.473-4.48 4.6-4.394 8.434.098 4.395 3.57 9.09 11.725 13.936.528.313 1.056.635 1.559.89.588.298.836.298 1.424 0 .335-.17.683-.37 1.033-.577l.526-.315c4.115-2.443 7.035-4.848 8.936-7.198a7.473 7.473 0 0 1-5.16-2.189l-2.083-2.082-1.334 1.333a7.077 7.077 0 0 1-10.008 0 4.946 4.946 0 0 1 0-6.995l4.85-4.852c-2.374-1.743-4.953-1.62-7.074-.385Zm11.371 1.014-.334.326a1.746 1.746 0 0 1-.184.213l-6.155 6.16a1.446 1.446 0 0 0 0 2.045 3.577 3.577 0 0 0 5.058 0l1.515-1.516a3.244 3.244 0 0 1 4.589 0l2.263 2.264a3.981 3.981 0 0 0 5.04.487 9.05 9.05 0 0 0 .437-2.56c.086-3.833-1.869-6.96-4.396-8.432-2.348-1.368-5.262-1.372-7.833 1.014Z" fill="#000" stroke="#fff" stroke-width=".5"/></svg>