<svg width="44" height="44" fill="none" xmlns="http://www.w3.org/2000/svg"><g clip-path="url('#clip0_29_238')"><g clip-path="url('#clip1_29_238')"><g clip-path="url('#clip2_29_238')"><path d="M40.276 26.995a4.183 4.183 0 0 0-3.2-.82c3.229-3.259 4.861-6.499 4.861-9.675 0-4.55-3.659-8.25-8.157-8.25a8.178 8.178 0 0 0-6.28 2.879 8.179 8.179 0 0 0-6.28-2.879c-4.498 0-8.157 3.7-8.157 8.25 0 1.89.556 3.728 1.729 5.672a5.477 5.477 0 0 0-2.536 1.444L8.37 27.5H3.438a2.75 2.75 0 0 0-2.75 2.75v6.875a2.75 2.75 0 0 0 2.75 2.75h17.875c.112 0 .224-.014.333-.041l11-2.75c.07-.017.139-.04.204-.069l6.681-2.843.076-.034a4.228 4.228 0 0 0 .675-7.143h-.006ZM21.22 11a5.355 5.355 0 0 1 5.008 3.266 1.375 1.375 0 0 0 2.544 0A5.353 5.353 0 0 1 33.78 11c2.93 0 5.407 2.518 5.407 5.5 0 3.353-2.713 7.147-7.847 10.983l-1.906.438A4.812 4.812 0 0 0 24.75 22h-6.758c-1.483-2-2.18-3.76-2.18-5.5 0-2.982 2.477-5.5 5.408-5.5ZM3.438 30.25h4.124v6.875H3.438V30.25Zm34.964 1.411-6.531 2.781-10.73 2.683H10.313v-7.681l3.889-3.888a2.727 2.727 0 0 1 1.944-.806h8.604a2.062 2.062 0 0 1 0 4.125h-4.813a1.375 1.375 0 0 0 0 2.75h5.5c.104 0 .207-.012.308-.034l11.516-2.649.053-.014a1.478 1.478 0 0 1 1.083 2.733h.005Z" fill="#334155"/></g></g></g><defs><clipPath id="clip0_29_238"><path fill="#fff" d="M0 0h44v44H0z"/></clipPath><clipPath id="clip1_29_238"><path fill="#fff" d="M0 0h44v44H0z"/></clipPath><clipPath id="clip2_29_238"><path fill="#fff" transform="translate(.688 2.75)" d="M0 0h44v44H0z"/></clipPath></defs></svg>