<svg width="42" height="42" fill="none" xmlns="http://www.w3.org/2000/svg"><path d="M6.592 23.633a12.184 12.184 0 0 1-2.672-3.918 11.36 11.36 0 0 1-.92-4.46c0-2.852.899-5.274 2.696-7.266C7.493 5.998 9.7 5.001 12.316 5c1.368 0 2.684.283 3.948.849a10.951 10.951 0 0 1 3.39 2.385L21 9.649l1.27-1.338c1.015-1.076 2.16-1.897 3.436-2.462A9.598 9.598 0 0 1 29.634 5c2.616 0 4.831.996 6.646 2.99 1.815 1.992 2.721 4.397 2.72 7.214 0 1.547-.309 3.047-.926 4.5a12.358 12.358 0 0 1-2.666 3.917L20.95 38 6.592 23.633Zm5.724-16.646c-2.047 0-3.778.799-5.194 2.395C5.707 10.98 5 12.92 5 15.206c0 .85.114 1.68.342 2.49.228.81.561 1.597 1 2.363h9.17l3.196 4.74 3.354-10.19h1.82l3.63 5.45h8.146a9.672 9.672 0 0 0 1.044-2.383 8.126 8.126 0 0 0 .31-2.47c-.041-2.286-.77-4.223-2.186-5.812-1.415-1.59-3.145-2.385-5.192-2.385-1.084 0-2.14.219-3.166.656a7.438 7.438 0 0 0-2.668 1.91l-2.254 2.39h-1.142l-2.254-2.39a7.562 7.562 0 0 0-2.66-1.922 7.903 7.903 0 0 0-3.174-.666ZM21 35.164l13.15-13.117h-7.672l-3.186-4.739-3.354 10.2h-1.83l-3.67-5.461h-6.6L21 35.164Z" fill="#334155" stroke="#334155" stroke-width=".4"/></svg>