<svg width="24" height="24" fill="none" xmlns="http://www.w3.org/2000/svg"><g clip-path="url('#clip0_28_35')"><path fill-rule="evenodd" clip-rule="evenodd" d="M12.896 21.96C18 21.507 22 17.22 22 12c0-5.523-4.477-10-10-10S2 6.477 2 12c0 4.848 3.45 8.89 8.028 9.806v-7.218H7.625v-2.89h2.403v-2.13c0-2.474 1.452-3.818 3.576-3.818 1.016 0 1.889.074 2.146.111v2.592h-1.473c-1.159 0-1.38.565-1.38 1.404V11.7h2.753l-.358 2.889h-2.396v7.372Z" fill="#171B33"/></g><defs><clipPath id="clip0_28_35"><path fill="#fff" d="M0 0h24v24H0z"/></clipPath></defs></svg>