<svg width="24" height="24" fill="none" xmlns="http://www.w3.org/2000/svg"><g clip-path="url('#clip0_28_38')"><path d="M19 2H5C3 2 2 3 2 5v14c0 2 1 3 3 3h14c2 0 3-1 3-3V5c0-2-1-3-3-3ZM8.667 17.833h-2.5V8.667h2.5v9.166ZM7.417 7.61a1.465 1.465 0 0 1-1.458-1.47c0-.812.653-1.47 1.458-1.47.805 0 1.458.658 1.458 1.47 0 .812-.652 1.47-1.458 1.47Zm11.25 10.223h-2.5v-4.67c0-2.806-3.334-2.594-3.334 0v4.67h-2.5V8.667h2.5v1.47c1.164-2.155 5.834-2.314 5.834 2.064v5.632Z" fill="#171B33"/></g><defs><clipPath id="clip0_28_38"><path fill="#fff" d="M0 0h24v24H0z"/></clipPath></defs></svg>