<svg width="24" height="24" fill="none" xmlns="http://www.w3.org/2000/svg"><g clip-path="url('#clip0_28_41')"><path d="M8.667 12a3.333 3.333 0 1 1 6.667 0 3.333 3.333 0 0 1-6.667 0Zm-1.802 0a5.135 5.135 0 1 0 10.27 0 5.135 5.135 0 0 0-10.27 0Zm9.273-5.338a1.2 1.2 0 1 0 2.401 0 1.2 1.2 0 0 0-2.4 0ZM7.96 20.14c-.975-.045-1.505-.207-1.857-.344a3.11 3.11 0 0 1-1.15-.748 3.091 3.091 0 0 1-.749-1.15c-.137-.352-.3-.882-.344-1.857-.048-1.054-.058-1.37-.058-4.041 0-2.67.01-2.986.058-4.041.045-.975.208-1.504.344-1.857.182-.467.399-.8.748-1.15.35-.35.683-.568 1.15-.748.353-.138.883-.3 1.858-.345 1.054-.048 1.37-.058 4.04-.058s2.986.01 4.041.058c.975.045 1.504.208 1.857.345.467.18.8.398 1.15.748.35.35.567.683.748 1.15.138.352.3.882.345 1.857.048 1.055.058 1.37.058 4.041 0 2.67-.01 2.986-.058 4.041-.045.975-.208 1.505-.345 1.857-.181.467-.398.8-.747 1.15-.35.35-.684.566-1.15.748-.353.137-.883.3-1.858.344-1.054.048-1.37.058-4.041.058-2.67 0-2.986-.01-4.04-.058ZM7.877 2.06c-1.064.049-1.791.218-2.427.465a4.907 4.907 0 0 0-1.771 1.154 4.894 4.894 0 0 0-1.154 1.77c-.247.637-.416 1.364-.464 2.428C2.01 8.943 2 9.284 2 12s.011 3.056.06 4.123c.049 1.064.218 1.791.465 2.427a4.89 4.89 0 0 0 1.154 1.771 4.905 4.905 0 0 0 1.77 1.154c.637.247 1.364.416 2.428.464C8.944 21.988 9.284 22 12 22s3.056-.011 4.123-.06c1.064-.049 1.791-.218 2.427-.465a4.92 4.92 0 0 0 1.771-1.154 4.912 4.912 0 0 0 1.154-1.77c.247-.637.417-1.364.464-2.428.049-1.067.06-1.407.06-4.123s-.011-3.057-.06-4.123c-.048-1.064-.217-1.791-.464-2.427a4.919 4.919 0 0 0-1.154-1.771 4.904 4.904 0 0 0-1.77-1.154c-.637-.247-1.364-.417-2.427-.464C15.057 2.012 14.717 2 12 2c-2.717 0-3.057.011-4.124.06Z" fill="#171B33"/></g><defs><clipPath id="clip0_28_41"><path fill="#fff" d="M0 0h24v24H0z"/></clipPath></defs></svg>